<?xml version="1.0" encoding="UTF-8"?>
<svg xmlns="http://www.w3.org/2000/svg" role="img" viewBox="0 0 32 32" id="Bluesky--Streamline-Simple-Icons" height="32" width="32">
  <desc>Bluesky Streamline Icon: https://streamlinehq.com</desc>
  <title>Bluesky</title>
  <path d="M16 14.4c-1.4493333333333331 -2.818666666666666 -5.394666666666667 -8.070666666666666 -9.064 -10.66C3.421333333333333 1.2586666666666666 2.0813333333333333 1.688 1.2026666666666666 2.0866666666666664 0.18533333333333335 2.5439999999999996 0 4.1066666666666665 0 5.023999999999999c0 0.9199999999999999 0.504 7.533333333333333 0.832 8.638666666666666 1.0866666666666664 3.648 4.950666666666667 4.88 8.510666666666665 4.485333333333333 0.18133333333333335 -0.026666666666666665 0.3666666666666667 -0.052 0.5533333333333332 -0.07466666666666666 -0.184 0.02933333333333333 -0.368 0.05333333333333333 -0.5533333333333332 0.07466666666666666 -5.215999999999999 0.7733333333333332 -9.849333333333332 2.673333333333333 -3.7733333333333334 9.437333333333333 6.683999999999999 6.92 9.16 -1.484 10.430666666666667 -5.744 1.2706666666666666 4.26 2.733333333333333 12.361333333333334 10.310666666666666 5.744 5.689333333333334 -5.744 1.5626666666666664 -8.664 -3.6533333333333333 -9.437333333333333a11.654666666666666 11.654666666666666 0 0 1 -0.5533333333333332 -0.07466666666666666c0.18666666666666668 0.02266666666666667 0.372 0.047999999999999994 0.5533333333333332 0.07466666666666666 3.5599999999999996 0.39599999999999996 7.4239999999999995 -0.8373333333333333 8.510666666666665 -4.485333333333333 0.32799999999999996 -1.1039999999999999 0.832 -7.72 0.832 -8.637333333333332 0 -0.9199999999999999 -0.18533333333333335 -2.481333333333333 -1.2026666666666666 -2.941333333333333 -0.8786666666666667 -0.3973333333333333 -2.2186666666666666 -0.8266666666666667 -5.7333333333333325 1.6533333333333333C21.394666666666666 6.330666666666667 17.449333333333332 11.582666666666665 16 14.4Z" fill="#000000" stroke-width="1.3333"></path>
</svg>
