<?xml version="1.0" encoding="UTF-8"?>
<svg xmlns="http://www.w3.org/2000/svg" fill="none" viewBox="0 0 32 32" id="Facebook-1--Streamline-Plump" height="32" width="32">
  <desc>Facebook 1 Streamline Icon: https://streamlinehq.com</desc>
  <g id="facebook-1--media-facebook-social">
    <path id="Subtract" fill="#000000" d="M19.670266666666667 30.963466666666665c0.004666666666666666 -0.04426666666666666 0.007066666666666666 -0.08926666666666666 0.007066666666666666 -0.13473333333333332V20.0264h3.6925999999999997c0.5920666666666666 0 1.125 -0.38986666666666664 1.2115333333333331 -0.9755333333333334 0.14313333333333333 -0.9688666666666667 0.08233333333333333 -1.8498666666666665 -0.010266666666666667 -2.4763333333333333 -0.08499999999999999 -0.5751333333333333 -0.5975333333333332 -0.9537333333333333 -1.1788666666666665 -0.9537333333333333H19.67733333333333c0 -3.3289999999999997 0.5539999999999999 -3.8134 3.6765999999999996 -3.8739999999999997 0.5991333333333333 -0.0116 1.137 -0.4072 1.2239333333333333 -1.0001333333333333 0.1462 -0.9966666666666667 0.08793333333333332 -1.8674666666666666 -0.0038 -2.4800666666666666 -0.08473333333333333 -0.5658666666666666 -0.5921333333333333 -0.9347333333333332 -1.1642666666666666 -0.9297333333333333 -5.518933333333333 0.048133333333333334 -8.662266666666666 0.7006666666666665 -8.662266666666666 8.283933333333334h-2.8592c-0.5556666666666666 0 -1.049 0.3482666666666666 -1.1330666666666667 0.8975333333333333 -0.09053333333333333 0.5918 -0.14526666666666666 1.4495999999999998 0.005866666666666667 2.4929333333333332 0.08733333333333333 0.6027333333333333 0.6294666666666666 1.0151333333333332 1.2385333333333333 1.0151333333333332h2.747866666666667v10.969533333333333c-4.273333333333333 -0.028066666666666663 -7.332066666666667 -0.19673333333333332 -9.323733333333333 -0.35853333333333326 -2.1919 -0.17806666666666665 -3.88312 -1.869333333333333 -4.061206666666666 -4.0611999999999995C1.1853866666666666 24.395133333333334 1 20.934266666666666 1 16c0 -4.934266666666666 0.18538666666666664 -8.395133333333334 0.3625933333333333 -10.5762 0.17808666666666664 -2.1919066666666662 1.8693066666666667 -3.88312 4.061213333333333 -4.061206666666666C7.604866666666666 1.1853799999999999 11.065733333333334 1 16 1c4.934266666666666 0 8.395133333333334 0.18538666666666664 10.5762 0.3625933333333333 2.1918666666666664 0.17808666666666664 3.8831333333333333 1.8693066666666667 4.0611999999999995 4.061206666666666 0.17719999999999997 2.1810666666666663 0.36260000000000003 5.641933333333332 0.36260000000000003 10.5762 0 4.934266666666666 -0.1854 8.395133333333334 -0.36260000000000003 10.5762 -0.17806666666666665 2.191933333333333 -1.869333333333333 3.8831333333333333 -4.0611999999999995 4.0611999999999995 -1.5936 0.12946666666666667 -3.8704 0.2633333333333333 -6.9059333333333335 0.3260666666666666Z" stroke-width="0.6667"></path>
  </g>
</svg>
